HIERARCHY
ROOT Hips
{
	OFFSET 0.00000 0.00000 0.00000
	CHANNELS 6 Xposition Yposition Zposition Zrotation Yrotation Xrotation 
	JOINT LHipJoint
	{
		OFFSET 0 0 0
		CHANNELS 3 Zrotation Yrotation Xrotation
		JOINT LeftUpLeg
		{
			OFFSET 1.56857 -1.73443 1.15205
			CHANNELS 3 Zrotation Yrotation Xrotation
			JOINT LeftLeg
			{
				OFFSET 2.39362 -6.57643 0.00000
				CHANNELS 3 Zrotation Yrotation Xrotation
				JOINT LeftFoot
				{
					OFFSET 2.50952 -6.89485 0.00000
					CHANNELS 3 Zrotation Yrotation Xrotation
					JOINT LeftToeBase
					{
						OFFSET 0.17171 -0.47178 1.88682
						CHANNELS 3 Zrotation Yrotation Xrotation
						End Site
						{
							OFFSET 0.00000 -0.00000 0.98146
						}
					}
				}
			}
		}
	}
	JOINT RHipJoint
	{
		OFFSET 0 0 0
		CHANNELS 3 Zrotation Yrotation Xrotation
		JOINT RightUpLeg
		{
			OFFSET -1.28153 -1.73443 1.15205
			CHANNELS 3 Zrotation Yrotation Xrotation
			JOINT RightLeg
			{
				OFFSET -2.26861 -6.23296 0.00000
				CHANNELS 3 Zrotation Yrotation Xrotation
				JOINT RightFoot
				{
					OFFSET -2.54143 -6.98254 0.00000
					CHANNELS 3 Zrotation Yrotation Xrotation
					JOINT RightToeBase
					{
						OFFSET -0.23309 -0.64041 1.93119
						CHANNELS 3 Zrotation Yrotation Xrotation
						End Site
						{
							OFFSET -0.00000 -0.00000 1.02013
						}
					}
				}
			}
		}
	}
	JOINT LowerBack
	{
		OFFSET 0 0 0
		CHANNELS 3 Zrotation Yrotation Xrotation
		JOINT Spine
		{
			OFFSET -0.07096 2.10460 -0.27878
			CHANNELS 3 Zrotation Yrotation Xrotation
			JOINT Spine1
			{
				OFFSET -0.00826 2.13662 -0.08279
				CHANNELS 3 Zrotation Yrotation Xrotation
				JOINT Neck
				{
					OFFSET 0 0 0
					CHANNELS 3 Zrotation Yrotation Xrotation
					JOINT Neck1
					{
						OFFSET 0.03239 1.77799 0.24435
						CHANNELS 3 Zrotation Yrotation Xrotation
						JOINT Head
						{
							OFFSET 0.01026 1.74194 -0.49664
							CHANNELS 3 Zrotation Yrotation Xrotation
							End Site
							{
								OFFSET 0.00170 1.83057 -0.19653
							}
						}
					}
				}
				JOINT LeftShoulder
				{
					OFFSET 0 0 0
					CHANNELS 3 Zrotation Yrotation Xrotation
					JOINT LeftArm
					{
						OFFSET 3.19178 1.35907 -0.31412
						CHANNELS 3 Zrotation Yrotation Xrotation
						JOINT LeftForeArm
						{
							OFFSET 4.85247 -0.00000 -0.00000
							CHANNELS 3 Zrotation Yrotation Xrotation
							JOINT LeftHand
							{
								OFFSET 3.55584 -0.00000 0.00000
								CHANNELS 3 Zrotation Yrotation Xrotation
								JOINT LeftFingerBase
								{
									OFFSET 0 0 0
									CHANNELS 3 Zrotation Yrotation Xrotation
									JOINT LeftHandIndex1
									{
										OFFSET 0.69320 -0.00000 0.00000
										CHANNELS 3 Zrotation Yrotation Xrotation
										End Site
										{
											OFFSET 0.55888 -0.00000 0.00000
										}
									}
								}
								JOINT LThumb
								{
									OFFSET 0 0 0
									CHANNELS 3 Zrotation Yrotation Xrotation
									End Site
									{
										OFFSET 0.56741 -0.00000 0.56741
									}
								}
							}
						}
					}
				}
				JOINT RightShoulder
				{
					OFFSET 0 0 0
					CHANNELS 3 Zrotation Yrotation Xrotation
					JOINT RightArm
					{
						OFFSET -3.28999 1.24191 -0.26899
						CHANNELS 3 Zrotation Yrotation Xrotation
						JOINT RightForeArm
						{
							OFFSET -4.64462 -0.00000 0.00000
							CHANNELS 3 Zrotation Yrotation Xrotation
							JOINT RightHand
							{
								OFFSET -3.40703 -0.00000 0.00000
								CHANNELS 3 Zrotation Yrotation Xrotation
								JOINT RightFingerBase
								{
									OFFSET 0 0 0
									CHANNELS 3 Zrotation Yrotation Xrotation
									JOINT RightHandIndex1
									{
										OFFSET -0.61958 -0.00000 0.00000
										CHANNELS 3 Zrotation Yrotation Xrotation
										End Site
										{
											OFFSET -0.49952 -0.00000 0.00000
										}
									}
								}
								JOINT RThumb
								{
									OFFSET 0 0 0
									CHANNELS 3 Zrotation Yrotation Xrotation
									End Site
									{
										OFFSET -0.50715 -0.00000 0.50715
									}
								}
							}
						}
					}
				}
			}
		}
	}
}
MOTION
Frames: 15
Frame Time: .0083333
6.3365 17.296 0.7068 0 0 0 0 0 0 -21 0 0 0 0 0 0 0 0 0 0 0 0 0 0 21 0 0 0 0 0 0 0 0 0 0 0 0 0 0 0 0 0 0 0 0 0 0 -16 0 0 21 0 0 11 0 0 0 -8 0 0 0 0 0 0 0 0 0 0 0 0 0 0 0 0 0 0 0 0 8 0 0 0 0 0 0 0 0 0 0 0 0 0 0 0 0 0
6.3365 17.2960 0.7068 45.7971 85.2972 43.8381 0.0000 0.0000 0.0000 -13.2394 2.2785 16.3016 0.0959 -1.9967 -5.4964 0.0214 11.7278 -16.9796 0.0070 -0.5384 -1.4795 0.0000 0.0000 0.0000 1.3398 -9.1206 6.5882 -0.0035 -0.3829 1.0521 -0.2184 -0.0219 -8.8359 -0.0193 0.8970 -2.4654 -5.4795 2.9347 3.9565 -1.4107 3.7452 1.7294 1.4358 1.8768 -0.6863 1.3714 1.6796 -16.7525 -2.9128 5.0849 38.5143 -0.4131 2.4267 16.9238 -0.0000 0.0000 0.0000 -84.0154 -0.9356 45.1275 12.4296 -20.4457 -2.2501 -0.0000 -0.0000 13.4842 17.4660 -23.8963 -7.2637 -7.1250 0.0000 -0.0000 -7.2734 5.2359 6.6341 -0.0000 0.0000 0.0000 89.8425 -4.9834 29.8536 -15.8217 25.2783 -3.5695 0.0000 0.0000 5.3145 -14.7216 -28.7926 7.2125 7.1250 -0.0000 -0.0000 18.1140 -58.6588 -6.1781
6.3369 17.2966 0.7063 45.3012 85.2661 43.3402 0.0000 0.0000 0.0000 -13.2393 2.3102 16.3094 0.0960 -1.9984 -5.5013 0.0170 11.7704 -16.9795 0.0062 -0.5081 -1.3960 0.0000 0.0000 0.0000 1.3500 -9.1237 6.5355 -0.0039 -0.4049 1.1125 -0.2197 0.1520 -8.8006 -0.0183 0.8730 -2.3995 -5.4593 2.9690 4.0021 -1.4215 3.7856 1.6826 1.4071 1.8993 -0.7606 1.3447 1.6658 -16.6598 -2.8401 5.0458 38.5017 -0.3847 2.4202 16.8879 0.0000 -0.0000 0.0000 -84.0125 -0.9133 45.1054 12.3770 -20.3676 -2.2318 -0.0000 -0.0000 13.5986 17.4072 -23.8904 -7.2362 -7.1250 0.0000 -0.0000 -7.3092 5.2507 6.6653 0.0000 -0.0000 0.0000 89.8670 -5.0672 29.7855 -15.8303 25.2901 -3.5732 0.0000 0.0000 5.4470 -14.5491 -28.7601 7.1178 7.1250 -0.0000 -0.0000 18.2724 -58.5896 -6.2039
6.3379 17.2963 0.7065 45.5332 85.2501 43.5533 0.0000 0.0000 0.0000 -13.2772 2.3053 16.3342 0.0958 -1.9961 -5.4949 0.0172 11.7874 -17.0062 0.0119 -0.7040 -1.9346 0.0000 0.0000 0.0000 1.3150 -9.1399 6.5497 -0.0040 -0.4059 1.1153 -0.2185 0.2393 -8.7457 -0.0174 0.8528 -2.3438 -5.4816 2.9805 4.0194 -1.4298 3.7989 1.6810 1.4091 1.9063 -0.7737 1.3030 1.6416 -16.6697 -2.7922 5.0058 38.5208 -0.3632 2.4045 16.8958 0.0000 -0.0000 0.0000 -83.9949 -0.8779 45.0804 12.4162 -20.4259 -2.2454 -0.0000 -0.0000 13.6274 17.3882 -23.8783 -7.2245 -7.1250 0.0000 -0.0000 -7.3201 5.2657 6.6733 0.0000 -0.0000 0.0000 89.8826 -5.0961 29.6925 -15.8522 25.3199 -3.5825 0.0000 0.0000 5.6040 -14.3191 -28.8806 7.0281 7.1250 -0.0000 -0.0000 18.5952 -58.6527 -6.3468
6.3364 17.2964 0.7063 45.6527 85.2532 43.6693 0.0000 0.0000 0.0000 -13.2905 2.2663 16.3353 0.0951 -1.9884 -5.4735 0.0279 11.7384 -17.0822 0.0123 -0.7175 -1.9719 0.0000 0.0000 0.0000 1.2841 -9.2151 6.5351 -0.0038 -0.3975 1.0922 -0.2161 0.1884 -8.7158 -0.0316 1.1480 -3.1561 -5.5011 2.9748 4.0309 -1.4150 3.7902 1.6882 1.4351 1.9017 -0.7743 1.2181 1.6291 -16.7513 -2.7307 4.9963 38.5733 -0.3210 2.3950 16.9393 -0.0000 0.0000 0.0000 -84.0019 -0.8543 45.0616 12.4663 -20.5002 -2.2629 -0.0000 -0.0000 13.6081 17.5098 -23.9028 -7.2847 -7.1250 0.0000 -0.0000 -7.2468 5.2229 6.6113 -0.0000 0.0000 0.0000 89.8650 -5.1033 29.7274 -15.8450 25.3101 -3.5794 0.0000 0.0000 5.4854 -14.4285 -28.8147 7.0690 7.1250 -0.0000 -0.0000 18.4357 -58.6146 -6.2729
6.3345 17.2963 0.7052 45.4395 85.2598 43.4677 0.0000 0.0000 0.0000 -13.2544 2.3010 16.2965 0.0943 -1.9809 -5.4529 0.0391 11.6591 -17.1226 0.0093 -0.6212 -1.7071 0.0000 0.0000 0.0000 1.2882 -9.2395 6.5105 -0.0039 -0.4028 1.1068 -0.2170 0.1931 -8.7315 -0.0322 1.1577 -3.1829 -5.5007 2.9592 4.0102 -1.3900 3.7721 1.7133 1.4636 1.8914 -0.7373 1.2152 1.6560 -16.7928 -2.7557 5.0442 38.5582 -0.3221 2.4087 16.9444 -0.0000 -0.0000 0.0000 -84.0315 -0.9165 45.0624 12.4615 -20.4931 -2.2613 -0.0000 -0.0000 13.5144 17.4448 -23.8736 -7.2479 -7.1250 0.0000 -0.0000 -7.2848 5.2622 6.6411 -0.0000 -0.0000 0.0000 89.8068 -5.0271 29.8833 -15.7894 25.2342 -3.5557 0.0000 0.0000 5.3208 -14.6278 -28.6099 7.1237 7.1250 -0.0000 -0.0000 18.0888 -58.4642 -6.0840
6.3363 17.2959 0.7035 45.6945 85.2746 43.7125 0.0000 0.0000 0.0000 -13.2423 2.3727 16.2707 0.0935 -1.9722 -5.4288 0.0493 11.5894 -17.1629 0.0076 -0.5631 -1.5472 0.0000 0.0000 0.0000 1.2759 -9.2332 6.5545 -0.0039 -0.4055 1.1143 -0.2189 0.3308 -8.7244 -0.0153 0.7998 -2.1980 -5.4524 2.9578 3.9928 -1.4136 3.7743 1.7277 1.4140 1.8920 -0.7083 1.3148 1.6705 -16.7265 -2.8327 5.0535 38.4859 -0.3740 2.4172 16.8953 -0.0000 0.0000 0.0000 -84.0112 -0.9523 45.0863 12.4334 -20.4515 -2.2515 -0.0000 -0.0000 13.4859 17.3783 -23.8909 -7.2237 -7.1250 0.0000 -0.0000 -7.3272 5.2544 6.6815 -0.0000 0.0000 0.0000 89.8181 -4.9824 29.8941 -15.7594 25.1934 -3.5429 0.0000 0.0000 5.2841 -14.6692 -28.5092 7.1218 7.1250 -0.0000 -0.0000 17.9782 -58.3776 -6.0075
6.3377 17.2959 0.7043 46.1108 85.2602 44.1244 0.0000 0.0000 0.0000 -13.2956 2.3279 16.2822 0.0926 -1.9624 -5.4017 0.0529 11.5908 -17.2122 0.0031 -0.3572 -0.9814 0.0000 0.0000 0.0000 1.2749 -9.0760 6.6349 -0.0036 -0.3887 1.0681 -0.2207 0.3209 -8.7645 -0.0046 0.4369 -1.2005 -5.4609 2.9677 3.9605 -1.4480 3.7907 1.7427 1.3849 1.8996 -0.6741 1.3763 1.6751 -16.6935 -2.8528 5.0424 38.4505 -0.3967 2.4193 16.8701 0.0000 0.0000 0.0000 -83.9717 -1.0147 45.1114 12.3840 -20.3781 -2.2342 -0.0000 -0.0000 13.5125 17.4606 -23.9595 -7.2792 -7.1250 0.0000 -0.0000 -7.2814 5.1723 6.6504 0.0000 0.0000 0.0000 89.8981 -4.9766 29.6977 -15.7887 25.2333 -3.5554 0.0000 0.0000 5.5177 -14.3990 -28.6511 7.0178 7.1250 -0.0000 -0.0000 18.3553 -58.4529 -6.1725
6.3362 17.2964 0.7064 45.8059 85.2609 43.8084 0.0000 0.0000 0.0000 -13.2932 2.2251 16.3312 0.0925 -1.9618 -5.4002 0.0488 11.6407 -17.2254 0.0011 -0.2143 -0.5888 0.0000 0.0000 0.0000 1.3684 -8.8373 6.7257 -0.0032 -0.3675 1.0097 -0.2231 0.1275 -8.8768 -0.0018 0.2757 -0.7574 -5.4782 2.9755 3.9633 -1.4358 3.8009 1.7527 1.4066 1.9043 -0.6679 1.4373 1.6888 -16.6559 -2.9135 5.0611 38.4052 -0.4319 2.4278 16.8415 0.0000 0.0000 0.0000 -83.9484 -1.0273 45.1223 12.3834 -20.3771 -2.2340 -0.0000 -0.0000 13.4850 17.3381 -23.9350 -7.2185 -7.1250 0.0000 -0.0000 -7.3552 5.2155 6.7130 0.0000 0.0000 0.0000 89.9407 -5.0063 29.4908 -15.8624 25.3337 -3.5869 0.0000 0.0000 5.9356 -13.9887 -28.9051 6.8662 7.1250 -0.0000 -0.0000 18.9567 -58.6024 -6.4528
6.3368 17.2967 0.7051 45.1077 85.3034 43.1101 0.0000 0.0000 0.0000 -13.2259 2.1936 16.3508 0.0931 -1.9680 -5.4171 0.0436 11.6762 -17.2050 0.0021 -0.2981 -0.8191 0.0000 0.0000 0.0000 1.4451 -8.8641 6.7148 -0.0033 -0.3682 1.0116 -0.2225 0.1363 -8.8624 -0.0020 0.2855 -0.7845 -5.3945 2.9765 3.9760 -1.4168 3.8027 1.7346 1.3784 1.9059 -0.6899 1.4939 1.7034 -16.5922 -2.9701 5.0842 38.3673 -0.4638 2.4392 16.8102 -0.0000 0.0000 0.0000 -83.8920 -0.9002 45.2441 12.4855 -20.5287 -2.2697 -0.0000 -0.0000 13.3669 17.1683 -23.7870 -7.1030 -7.1250 0.0000 -0.0000 -7.4495 5.3910 6.7754 -0.0000 0.0000 0.0000 89.9161 -5.0661 29.5683 -15.8974 25.3814 -3.6019 0.0000 0.0000 5.8250 -14.0838 -28.9465 6.9232 7.1250 -0.0000 -0.0000 18.8864 -58.6627 -6.4553
6.3372 17.2970 0.7040 44.8455 85.3040 42.8806 0.0000 0.0000 0.0000 -13.1828 2.2652 16.2949 0.0938 -1.9756 -5.4382 0.0432 11.6362 -17.1458 0.0012 -0.2270 -0.6238 0.0000 0.0000 0.0000 1.4431 -8.9311 6.6261 -0.0036 -0.3866 1.0622 -0.2236 0.1320 -8.8846 -0.0046 0.4389 -1.2059 -5.3816 2.9675 3.9602 -1.4109 3.7914 1.7199 1.3783 1.9004 -0.6952 1.5124 1.7239 -16.6371 -2.9679 5.1124 38.4045 -0.4598 2.4530 16.8430 0.0000 0.0000 0.0000 -83.8687 -0.8514 45.3689 12.5305 -20.5954 -2.2855 -0.0000 -0.0000 13.1835 17.3296 -23.7808 -7.1715 -7.1250 0.0000 -0.0000 -7.3493 5.3738 6.6851 0.0000 0.0000 0.0000 89.8752 -5.0329 29.7801 -15.8248 25.2825 -3.5708 0.0000 0.0000 5.4558 -14.5579 -28.6400 7.0953 7.1250 -0.0000 -0.0000 18.1821 -58.4774 -6.1226
6.3360 17.2973 0.7047 45.3865 85.2659 43.4155 0.0000 0.0000 0.0000 -13.2149 2.3440 16.2716 0.0945 -1.9822 -5.4566 0.0409 11.6152 -17.0863 0.0004 -0.1328 -0.3650 0.0000 0.0000 0.0000 1.3857 -8.8990 6.6113 -0.0039 -0.4021 1.1048 -0.2271 0.0306 -8.9898 -0.0100 0.6453 -1.7733 -5.4817 2.9533 3.9968 -1.3989 3.7671 1.7313 1.4456 1.8882 -0.7092 1.4737 1.7536 -16.6905 -2.9689 5.1751 38.4286 -0.4405 2.4715 16.8708 0.0000 -0.0000 0.0000 -83.9839 -0.9578 45.1798 12.4288 -20.4445 -2.2498 -0.0000 -0.0000 13.2721 17.5027 -23.9399 -7.2921 -7.1250 0.0000 -0.0000 -7.2539 5.1860 6.6230 0.0000 -0.0000 0.0000 89.8297 -4.9578 29.8452 -15.7639 25.1995 -3.5448 0.0000 0.0000 5.3824 -14.7553 -28.4929 7.1614 7.1250 -0.0000 -0.0000 17.8773 -58.3811 -5.9739
6.3359 17.2975 0.7045 46.3080 85.2194 44.2987 0.0000 0.0000 0.0000 -13.3316 2.3209 16.3271 0.0953 -1.9912 -5.4814 0.0225 11.7322 -17.0007 0.0032 -0.3629 -0.9972 0.0000 0.0000 0.0000 1.2582 -8.9527 6.6601 -0.0037 -0.3932 1.0803 -0.2252 0.1167 -8.9225 -0.0099 0.6427 -1.7662 -5.5796 2.9468 4.0415 -1.4001 3.7534 1.7550 1.4975 1.8812 -0.7146 1.3917 1.7677 -16.6674 -2.9432 5.2110 38.3913 -0.4083 2.4778 16.8426 -0.0000 -0.0000 0.0000 -84.0991 -1.0412 44.9270 12.3402 -20.3128 -2.2190 -0.0000 -0.0000 13.5325 17.4459 -24.0000 -7.2841 -7.1250 0.0000 -0.0000 -7.2934 5.1333 6.6670 -0.0000 -0.0000 0.0000 89.7996 -4.9402 29.8501 -15.7855 25.2289 -3.5540 0.0000 0.0000 5.3184 -14.6596 -28.7228 7.1653 7.1250 -0.0000 -0.0000 18.1316 -58.5786 -6.1492
6.3361 17.2973 0.7042 46.9546 85.1776 44.9269 0.0000 0.0000 0.0000 -13.4195 2.3189 16.3361 0.0948 -1.9861 -5.4671 0.0129 11.7737 -16.9292 0.0073 -0.5510 -1.5140 0.0000 0.0000 0.0000 1.1389 -9.0534 6.6780 -0.0035 -0.3842 1.0557 -0.2209 0.2432 -8.7929 -0.0090 0.6121 -1.6820 -5.6450 2.9504 4.0571 -1.4165 3.7556 1.7648 1.5162 1.8823 -0.7161 1.3596 1.7602 -16.6630 -2.9169 5.1990 38.3846 -0.3933 2.4718 16.8352 -0.0000 -0.0000 0.0000 -84.0957 -1.0071 44.9001 12.3716 -20.3595 -2.2299 -0.0000 -0.0000 13.5857 17.3384 -23.9149 -7.2130 -7.1250 0.0000 -0.0000 -7.3536 5.2358 6.7086 -0.0000 -0.0000 0.0000 89.8163 -4.9666 29.8141 -15.8091 25.2611 -3.5641 0.0000 0.0000 5.3000 -14.6361 -28.8513 7.1824 7.1250 -0.0000 -0.0000 18.2436 -58.6955 -6.2404
6.3374 17.2956 0.7037 47.0342 85.1553 44.9981 0.0000 0.0000 0.0000 -13.4147 2.4162 16.2919 0.0928 -1.9650 -5.4091 0.0186 11.6784 -16.8740 0.0094 -0.6274 -1.7242 0.0000 0.0000 0.0000 1.0838 -9.1327 6.6612 -0.0037 -0.3926 1.0787 -0.2197 0.2455 -8.7679 -0.0135 0.7514 -2.0651 -5.6458 2.9655 4.0519 -1.4475 3.7758 1.7526 1.4836 1.8930 -0.7252 1.3869 1.7465 -16.6398 -2.8951 5.1717 38.4429 -0.3933 2.4700 16.8595 -0.0000 -0.0000 0.0000 -84.0091 -0.9431 45.0097 12.4245 -20.4382 -2.2483 -0.0000 -0.0000 13.5034 17.2154 -23.7688 -7.1184 -7.1250 0.0000 -0.0000 -7.4191 5.4026 6.7456 -0.0000 -0.0000 0.0000 89.8909 -5.0377 29.7143 -15.8145 25.2685 -3.5664 0.0000 0.0000 5.3921 -14.7363 -28.7513 7.2105 7.1250 -0.0000 -0.0000 18.0707 -58.6228 -6.1470
